<?xml version="1.0" encoding="utf-8"?>
<!-- Generator: Adobe Illustrator 24.2.1, SVG Export Plug-In . SVG Version: 6.00 Build 0)  -->
<svg version="1.0" id="Layer_1" xmlns="http://www.w3.org/2000/svg" xmlns:xlink="http://www.w3.org/1999/xlink" x="0px" y="0px"
	 viewBox="0 0 400 400" style="enable-background:new 0 0 400 400;" xml:space="preserve">
<style type="text/css">
	.st0{fill:#4D4D4D;}
</style>
<g id="speed" transform="translate(0 0)">
	<path id="Path_1732" class="st0" d="M310.3,137.5c-46.9-40.4-112.2-52-170.2-30.1c-56.7,21.5-97.5,71.8-107,131.7
		c-3.2,20.5,10.8,39.6,31.2,42.9c1.9,0.3,3.8,0.5,5.8,0.5h95.8c9.4,18.8,32.3,26.5,51.1,17.1c7.4-3.7,13.4-9.7,17.1-17.1h95.8
		c20.7,0,37.5-16.8,37.4-37.5c0-1.9-0.2-3.9-0.5-5.8C360.6,199.6,340.6,163.6,310.3,137.5z M200,279.7c-5.4,0-10.4-3.1-12.8-8
		c-1-2-1.5-4.1-1.5-6.3c0-7.9,6.4-14.3,14.3-14.3c7.9,0,14.3,6.4,14.3,14.3C214.3,273.3,207.9,279.7,200,279.7
		C200,279.7,200,279.7,200,279.7z M332.4,247.2c-0.6,0.8-1.6,1.2-2.6,1.2h-95.7c-6.5-12.9-19.7-21.1-34.1-21.1c-1.1,0-2.2,0-3.3,0.1
		L153,169.6c-3.4-4.5-9.8-5.5-14.3-2.1c-4,3-5.3,8.4-3,12.8l31.9,65c-0.6,1-1.2,2-1.7,3H70.1c-1,0-1.9-0.4-2.6-1.2
		c-0.7-0.8-1-1.8-0.8-2.8c9.5-60.5,58.7-107,119.6-113.1v27.7c0,7.5,6.1,13.6,13.6,13.6c7.5,0,13.6-6.1,13.6-13.6v-27.7
		c27.5,2.8,53.5,13.9,74.5,32c24.2,20.8,40.2,49.6,45.1,81.1C333.4,245.4,333.1,246.4,332.4,247.2L332.4,247.2z"/>
</g>
</svg>
