<svg xmlns="http://www.w3.org/2000/svg" data-name="1" viewBox="0 0 128 128"><path d="M126 20H2a2 2 0 0 0-2 2v84a2 2 0 0 0 2 2h124a2 2 0 0 0 2-2V22a2 2 0 0 0-2-2Zm-2 71.69L100.27 76H124ZM124 52h-23.41L124 36.33Zm0-20.48L93.39 52H76v-3.13L113.61 24H124Zm-36.74 5.11L76 44.08V24h30.36ZM52 24v20.08l-11.26-7.45L21.64 24ZM4 24h10.39L52 48.87V52H35L4 31.51Zm0 52h23.73L4 91.69Zm0-39.69L27.73 52H4ZM4 104v-7.51L35 76h17v3.13L14.39 104Zm48 0H21.64L52 83.92Zm4 0V74a2 2 0 0 0-2-2H4V56h50a2 2 0 0 0 2-2V24h16v30a2 2 0 0 0 2 2h50v16H74a2 2 0 0 0-2 2v30Zm20-20.08L106.36 104H76ZM124 104h-10.39L76 79.13V76h17l31 20.49Z"/></svg>