
        <svg xmlns="http://www.w3.org/2000/svg" xmlns:xlink="http://www.w3.org/1999/xlink" version="1.1" width="3158.125915265883" 
        height="1040.5641408349843" viewBox="0 0 3158.125915265883 1040.5641408349843">
			<rect fill="#000000" width="3158.125915265883" height="1040.5641408349843"/>
			<g transform="scale(7.906295763294146) translate(10, 10)">
				<defs id="SvgjsDefs1105"><linearGradient id="SvgjsLinearGradient1118"><stop id="SvgjsStop1119" stop-color="#8f5e25" offset="0"></stop><stop id="SvgjsStop1120" stop-color="#fbf4a1" offset="0.5"></stop><stop id="SvgjsStop1121" stop-color="#8f5e25" offset="1"></stop></linearGradient><linearGradient id="SvgjsLinearGradient1122"><stop id="SvgjsStop1123" stop-color="#8f5e25" offset="0"></stop><stop id="SvgjsStop1124" stop-color="#fbf4a1" offset="0.5"></stop><stop id="SvgjsStop1125" stop-color="#8f5e25" offset="1"></stop></linearGradient><linearGradient id="SvgjsLinearGradient1126"><stop id="SvgjsStop1127" stop-color="#8f5e25" offset="0"></stop><stop id="SvgjsStop1128" stop-color="#fbf4a1" offset="0.5"></stop><stop id="SvgjsStop1129" stop-color="#8f5e25" offset="1"></stop></linearGradient><linearGradient id="SvgjsLinearGradient1130"><stop id="SvgjsStop1131" stop-color="#8f5e25" offset="0"></stop><stop id="SvgjsStop1132" stop-color="#fbf4a1" offset="0.5"></stop><stop id="SvgjsStop1133" stop-color="#8f5e25" offset="1"></stop></linearGradient><linearGradient id="SvgjsLinearGradient1134"><stop id="SvgjsStop1135" stop-color="#8f5e25" offset="0"></stop><stop id="SvgjsStop1136" stop-color="#fbf4a1" offset="0.5"></stop><stop id="SvgjsStop1137" stop-color="#8f5e25" offset="1"></stop></linearGradient></defs><g id="SvgjsG1106" featureKey="symbolGroupContainer" transform="matrix(1.9846263140031566,0,0,1.9846263140031566,0.000014672387529316448,0.00828332679950568)" fill="url(#SvgjsLinearGradient1118)"><path xmlns="http://www.w3.org/2000/svg" d="M23.11 55.78L1.69 43.41A3.39 3.39 0 0 1 0 40.48V15.75a3.39 3.39 0 0 1 1.69-2.94L23.11.45a3.39 3.39 0 0 1 3.39 0l21.41 12.37a3.39 3.39 0 0 1 1.69 2.94v24.72a3.39 3.39 0 0 1-1.69 2.94L26.5 55.78a3.39 3.39 0 0 1-3.39 0z"></path></g><g id="SvgjsG1107" featureKey="monogramFeature-0" transform="matrix(0.3851962507448495,0,0,0.3851962507448495,16.071322384275796,39.20585736684676)" fill="#000000"><path d="M12.051 52.857 l40.769 0 l0 7.0431 l-47.813 0 l0 -34.222 l7.0431 0 l0 27.179 z M71.274 33.013999999999996 c-0.65448 0.36176 -1.3235 0.96918 -1.3235 2.729 c0 1.3717 0.44338 2.1215 1.582 2.6732 c1.1516 0.55793 2.4359 0.59871 2.5006 0.6003 l25.6 0.10008 c4.4483 0 11.087 2.7474 11.087 10.316 s-6.1692 10.316 -10.316 10.316 l-37.496 0 l0 -7.0431 l37.465 0 c0.30721 -0.010606 1.2245 -0.12633 1.9807 -0.54457 c0.65484 -0.36217 1.3238 -0.96954 1.3238 -2.7289 c0 -1.3717 -0.44338 -2.1215 -1.582 -2.6732 c-1.1481 -0.5564 -2.4311 -0.59842 -2.5029 -0.60036 l-25.583 -0.11379 l0 0.013711 c-4.4624 0 -11.101 -2.7474 -11.101 -10.316 s6.1692 -10.316 10.316 -10.316 l37.496 0 l0 7.0431 l-37.464 0 c-0.30686 0.010606 -1.225 0.12633 -1.9815 0.54457 z M127.791 52.857 l40.769 0 l0 7.0431 l-47.813 0 l0 -34.222 l7.0431 0 l0 27.179 z"></path></g><g id="SvgjsG1108" featureKey="sloganFeature-0" transform="matrix(1.4633731978585578,0,0,1.4633731978585578,123.5579442697814,68.71592932155359)" fill="url(#SvgjsLinearGradient1122)"><path d="M15.997 17.557 l1.162 -0.017422 l0.034786 2.3242 l-1.1621 0.017402 c-0.18088 0.002754 -0.38542 0.0058984 -0.6087 0.0058984 c-1.614 0 -4.2026 -0.16008 -5.8378 -1.7712 c-0.72798 -0.71726 -1.1865 -1.629 -1.3698 -2.72 l-4.2054 0 l-0.016602 4.4896 l-2.3246 -0.0086328 l0.037402 -10.127 l0 -1.1635 l0.0043164 0 l0 -0.0043164 l1.1612 0.0043164 l10.951 0 c1.4728 0 3.6638 0.90678 3.6638 3.4048 c0 2.4982 -2.0362 3.405 -3.4048 3.405 l-3.4826 0 c0.12543 0.4252 0.32842 0.77924 0.61734 1.064 c1.1685 1.151 3.608 1.1146 4.7804 1.0969 z M4.0314 13.0714 l10.041 -0.000019531 c0.10148 -0.0035352 0.40426 -0.041718 0.6538 -0.17971 c0.21608 -0.11955 0.43686 -0.32006 0.43686 -0.90076 c0 -0.46692 -0.15799 -0.71972 -0.56382 -0.90166 c-0.36882 -0.16531 -0.77152 -0.17865 -0.77532 -0.17865 l-9.7922 0 l0 2.1608 z M36.787 10.9512 l-13.59 0.000019531 l0 2.1863 l9.0642 0.03375 l-0.0086328 2.3478 l-9.0556 -0.03375 l0 2.1782 l13.59 0 l0 2.3477 l-15.938 0 l0 -11.407 l15.938 0 l0 2.3476 z M53.719 8.593 l2.3476 0 l0 11.25 l-13.59 -7.098 l0 7.2556 l-2.3477 0 l0 -11.25 l13.59 7.098 l0 -7.2556 z M59.4092 8.475 l15.938 0 l0 2.3477 l-6.7954 0 l0 9.0932 l-2.3476 0 l0 -9.0932 l-6.7946 0 l0 -2.3477 z M95.75540000000001 7.711 l9.1766 12.19 l-2.9508 0 l-2.566 -3.3974 l-7.3197 0 l-2.5286 3.3974 l-2.9177 0 z M93.8562 14.1556 l3.7983 0 l-1.8992 -2.5322 z M131.99 17.65 l0.040136 2.3242 l-1.1621 0.02002 c-0.015039 0.0002539 -1.0275 0.017129 -3.0076 0.017129 c-1.0032 0 -2.2546 -0.0044532 -3.7506 -0.017402 c-2.4132 -0.021054 -4.3428 -0.54212 -5.7348 -1.549 c-1.3835 -1.0007 -2.1454 -2.4562 -2.1454 -4.0986 c0 -1.6413 0.76854 -3.1002 2.164 -4.1074 c1.383 -0.99846 3.3616 -1.531 5.7218 -1.5402 c4.441 -0.017129 6.719 0.00027344 6.7416 0.00041016 l1.1622 0.0091602 l-0.01832 2.3246 l-1.1622 -0.0091602 c-0.022364 -0.0002539 -2.2892 -0.01752 -6.7144 -0.00039062 c-3.4358 0.01334 -5.5702 1.2866 -5.5702 3.3232 c0 0.90194 0.39812 1.6473 1.1831 2.215 c0.97936 0.70836 2.4984 1.0916 4.3926 1.1081 c4.4144 0.038574 6.6758 0.00089844 6.698 0.00050782 z M143.5554 7.711 l9.1766 12.19 l-2.9508 0 l-2.566 -3.3974 l-7.3197 0 l-2.5286 3.3974 l-2.9177 0 z M141.6562 14.1556 l3.7983 0 l-1.8992 -2.5322 z M169.47699999999998 17.557 l1.162 -0.017422 l0.034786 2.3242 l-1.1621 0.017402 c-0.18088 0.002754 -0.38542 0.0058984 -0.6087 0.0058984 c-1.614 0 -4.2026 -0.16008 -5.8378 -1.7712 c-0.72798 -0.71726 -1.1865 -1.629 -1.3698 -2.72 l-4.2054 0 l-0.016602 4.4896 l-2.3246 -0.0086328 l0.037402 -10.127 l0 -1.1635 l0.0043164 0 l0 -0.0043164 l1.1612 0.0043164 l10.951 0 c1.4728 0 3.6638 0.90678 3.6638 3.4048 c0 2.4982 -2.0362 3.405 -3.4048 3.405 l-3.4826 0 c0.12543 0.4252 0.32842 0.77924 0.61734 1.064 c1.1685 1.151 3.608 1.1146 4.7804 1.0969 z M157.51139999999998 13.0714 l10.041 -0.000019531 c0.10148 -0.0035352 0.40426 -0.041718 0.6538 -0.17971 c0.21608 -0.11955 0.43686 -0.32006 0.43686 -0.90076 c0 -0.46692 -0.15799 -0.71972 -0.56382 -0.90166 c-0.36882 -0.16531 -0.77152 -0.17865 -0.77532 -0.17865 l-9.7922 0 l0 2.1608 z"></path></g><g id="SvgjsG1109" featureKey="nameLeftFeature-0" transform="matrix(1.0975608734911595,0,0,1.0975608734911595,115.80487825301768,5.658537989496557)" fill="url(#SvgjsLinearGradient1126)"><path d="M2 40 l0 -32 l4 0 l0 28 l5.2 0 l0 4 l-9.2 0 z M12.7 23.16 c0 -11.16 0.24 -15.56 6.24 -15.56 s6.24 4.4 6.24 15.56 c0 12.8 -0.24 17.24 -6.24 17.24 s-6.24 -4.44 -6.24 -17.24 z M16.7 23.16 c0 11.56 0 13.24 2.24 13.24 s2.24 -1.68 2.24 -13.24 c0 -10.4 0 -12.36 -2.24 -12.36 s-2.24 1.96 -2.24 12.36 z M28.28 40 l0 -32 l6.48 0 c4.12 0 5.52 2.52 5.52 7.36 c0 4.36 -0.52 6.84 -1.76 8.04 l0 0.24 c1.04 0.36 1.36 2.24 1.76 6.92 l0.8 9.44 l-4 0 l-0.52 -9.44 c-0.28 -4.76 -1 -5.76 -2.2 -5.76 l-2.08 0 l0 15.2 l-4 0 z M32.28 21.6 l2.48 0 c1.4 0 1.8 -1.4 1.8 -6.24 c0 -3.16 -0.6 -4.16 -1.8 -4.16 l-2.48 0 l0 10.4 z M43.78 40 l0 -32 l6 0 c6 0 6 4.4 6 15.16 c0 12.4 0 16.84 -6 16.84 l-6 0 z M47.78 36 l2 0 c2.24 0 2.24 -1.68 2.24 -12.84 c0 -10 0 -11.96 -2.24 -11.96 l-2 0 l0 24.8 z M66.38000000000001 30.240000000000002 l4.04 0 c0.08 5.16 0.48 6.16 1.92 6.16 c1.96 0 1.96 -1.64 1.96 -6 c0 -6.4 -7.92 -4.68 -7.92 -13.2 c0 -5 0 -9.6 6 -9.6 c4.44 0 5.64 2.52 5.92 8.56 l-4 0 c-0.16 -4.36 -0.64 -5.36 -1.92 -5.36 c-1.96 0 -1.96 2.16 -1.96 6.4 c0 6.2 7.96 4 7.96 13.2 c0 5.6 0 10 -6.04 10 c-4.64 0 -5.72 -2.76 -5.96 -10.16 z M79.48000000000002 11.600000000000001 l0 -3.6 l12 0 l0 3.6 l-4 0 l0 28.4 l-4 0 l0 -28.4 l-4 0 z"></path></g><g id="SvgjsG1110" featureKey="inlineSymbolFeature-0" transform="matrix(0.45,0,0,0.45,216.5,9.5)" fill="url(#SvgjsLinearGradient1130)"><path xmlns="http://www.w3.org/2000/svg" d="M50,10L10,90h80L50,10z M50,24.909L72.546,70H42.36l3.333-6.667h16.064L50,39.814L31.575,76.667h44.304l3.333,6.666H20.788  L50,24.909z"></path></g><g id="SvgjsG1111" featureKey="nameRightFeature-0" transform="matrix(1.1111110587833049,0,0,1.1111110587833049,259.7777778824334,5.111111529733561)" fill="url(#SvgjsLinearGradient1134)"><path d="M2 40 l0 -32 l6.48 0 c4.12 0 5.52 2.52 5.52 7.36 c0 4.36 -0.52 6.84 -1.76 8.04 l0 0.24 c1.04 0.36 1.36 2.24 1.76 6.92 l0.8 9.44 l-4 0 l-0.52 -9.44 c-0.28 -4.76 -1 -5.76 -2.2 -5.76 l-2.08 0 l0 15.2 l-4 0 z M6 21.6 l2.48 0 c1.4 0 1.8 -1.4 1.8 -6.24 c0 -3.16 -0.6 -4.16 -1.8 -4.16 l-2.48 0 l0 10.4 z M25.8 40 l0 -32 l4 0 l0 28 l5.2 0 l0 4 l-9.2 0 z M36.699999999999996 23.16 l0 -15.16 l4 0 l0 15.16 c0 11.56 0 13.24 2 13.24 s2 -1.68 2 -13.24 l0 -15.16 l4 0 l0 15.16 c0 12.8 0 17.24 -6 17.24 s-6 -4.44 -6 -17.24 z M50.8 40 l4 -16.08 l-3.6 -15.92 l4 0 l1.6 11.2 l0.4 0 l1.6 -11.2 l4 0 l-3.6 14.84 l4 17.16 l-4 0 l-2 -11.32 l-0.4 0 l-2 11.32 l-4 0 z M65.3 23.16 l0 -15.16 l4 0 l0 15.16 c0 11.56 0 13.24 2 13.24 s2 -1.68 2 -13.24 l0 -15.16 l4 0 l0 15.16 c0 12.8 0 17.24 -6 17.24 s-6 -4.44 -6 -17.24 z M80.6 40 l0 -32 l6.48 0 c4.12 0 5.52 2.52 5.52 7.36 c0 4.36 -0.52 6.84 -1.76 8.04 l0 0.24 c1.04 0.36 1.36 2.24 1.76 6.92 l0.8 9.44 l-4 0 l-0.52 -9.44 c-0.28 -4.76 -1 -5.76 -2.2 -5.76 l-2.08 0 l0 15.2 l-4 0 z M84.6 21.6 l2.48 0 c1.4 0 1.8 -1.4 1.8 -6.24 c0 -3.16 -0.6 -4.16 -1.8 -4.16 l-2.48 0 l0 10.4 z M94.5 8 l4 0 l2.4 12.32 l0.4 0 l2.4 -12.32 l4 0 l-4.6 18.08 l0 13.92 l-4 0 l0 -13.92 z"></path></g>
			</g>
		</svg>
	