<svg version="1.1" id="Layer_1" xmlns="http://www.w3.org/2000/svg" xmlns:xlink="http://www.w3.org/1999/xlink" x="0px" y="0px"
	 width="100%" viewBox="0 0 1024 1024" enable-background="new 0 0 1024 1024" xml:space="preserve">
<path fill="#000000" opacity="1.000000" stroke="none" 
	d="
M168.520935,470.560059 
	C163.175476,469.939789 158.275024,469.397766 153.487015,468.868195 
	C152.926239,465.787048 154.952896,464.733215 156.255966,463.402374 
	C176.228119,443.004028 200.329788,428.607971 225.451645,415.625793 
	C255.927505,399.876770 288.526611,390.490753 321.936310,383.968109 
	C346.940399,379.086578 370.577850,370.379425 394.316437,361.598846 
	C430.262421,348.302887 466.826813,336.926941 504.835693,331.197998 
	C528.431458,327.641510 552.216736,327.547638 576.050354,329.300232 
	C593.493042,330.582916 610.775635,332.861816 628.012939,335.654785 
	C631.994507,336.299927 635.378967,335.342987 638.833618,333.146515 
	C662.423340,318.147980 687.785400,307.514496 715.558777,303.337891 
	C724.324524,302.019653 733.162720,300.648926 741.969360,300.835022 
	C742.321106,302.238495 741.788574,302.747009 741.182312,302.940216 
	C719.076172,309.982574 701.944885,324.502930 685.674622,340.174866 
	C667.079773,358.085846 649.389954,376.919525 629.945557,393.969604 
	C594.653259,424.916229 554.461548,446.694489 509.236908,459.143585 
	C477.162506,467.972748 444.445129,472.475555 411.197601,473.470978 
	C404.280884,473.678040 397.393127,474.719299 389.852936,474.021057 
	C393.150360,470.765045 396.923126,471.702759 400.176941,471.164001 
	C446.694061,463.462280 488.757965,445.184204 527.373962,418.399139 
	C555.903320,398.610382 581.738831,375.427490 609.103027,354.175201 
	C611.052856,352.660919 612.958740,351.089966 615.310547,349.204163 
	C609.114746,347.010986 603.110168,347.012787 597.307312,346.521637 
	C569.406738,344.160217 541.430542,342.657104 513.495239,345.468231 
	C490.235352,347.808868 467.755829,354.035370 445.482147,360.959381 
	C416.544952,369.954834 387.995117,380.103149 359.310883,389.851562 
	C358.399506,390.161316 357.522583,390.572296 355.213562,391.512848 
	C402.723358,402.620270 449.117004,406.407623 496.194824,397.698822 
	C496.100281,400.711273 494.117737,400.336945 492.890808,400.684692 
	C457.575043,410.693298 421.779846,412.200073 385.603668,406.568451 
	C368.684265,403.934570 351.834930,400.710083 334.838562,398.756439 
	C321.883331,397.267303 308.981750,399.775330 296.211639,402.242950 
	C277.482178,405.862122 259.527832,411.871948 242.112137,419.571869 
	C240.773834,420.163574 239.511246,420.926422 237.865005,421.793152 
	C240.459366,423.476013 243.731491,423.169067 245.671906,426.307281 
	C235.022232,436.411774 223.539017,444.477570 207.754974,444.041473 
	C217.653458,440.281555 228.237305,437.713501 235.031784,428.689056 
	C230.731171,426.847900 225.657608,427.561676 218.840775,431.264160 
	C206.669418,437.874939 195.044205,445.349762 184.023193,453.746765 
	C180.726944,456.258209 177.506226,458.868774 173.837204,461.759949 
	C178.194366,464.639374 182.837234,464.085632 187.025558,464.458099 
	C205.122986,466.067352 223.282104,466.668671 241.395889,464.705475 
	C253.138550,463.432800 264.173065,459.917175 273.812531,452.754791 
	C278.320465,449.405304 281.545990,445.060974 284.309204,440.215271 
	C299.960999,412.767883 334.845306,406.412445 359.014496,426.531250 
	C370.673187,436.236115 378.056671,454.230408 376.008148,468.749817 
	C374.084015,466.657837 374.232727,464.299774 373.697052,462.208618 
	C369.073120,444.157196 358.775940,431.011047 340.549347,425.420105 
	C317.332397,418.298370 292.908508,433.454407 286.332214,458.579742 
	C285.393738,462.165344 285.101532,465.795502 284.983002,469.455627 
	C284.880737,472.612305 283.770355,474.273590 280.196686,474.258026 
	C254.365250,474.145294 228.527832,474.483429 202.703766,474.028137 
	C191.428970,473.829346 180.133255,472.558716 168.520935,470.560059 
z"/>
<path fill="#000000" opacity="1.000000" stroke="none" 
	d="
M514.999878,725.337036 
	C432.014313,725.333984 349.528748,725.334656 267.043182,725.325012 
	C244.033752,725.322266 225.951889,712.984985 217.673019,691.518250 
	C214.497986,683.285522 211.358948,675.024109 208.658386,666.629456 
	C207.284164,662.357727 205.012863,660.979248 200.665573,661.225403 
	C186.880478,662.006104 173.822601,659.464294 161.995148,651.896973 
	C150.808228,644.739441 142.707352,635.020996 138.127609,622.584106 
	C122.938072,581.334900 107.886703,540.034851 92.780624,498.754852 
	C88.730713,487.687714 84.674713,476.622833 80.661171,465.665192 
	C82.748978,464.140411 83.904861,465.531281 85.117790,466.189545 
	C96.976196,472.624878 108.724319,479.269318 120.676102,485.525116 
	C135.497665,493.282928 151.326492,497.718506 168.107208,497.722443 
	C398.233582,497.776398 628.359924,497.743805 858.486328,497.752472 
	C876.103882,497.753143 892.223877,492.665070 907.449341,484.065948 
	C918.181335,478.004669 929.087769,472.250732 939.952637,466.427399 
	C941.326721,465.690948 942.612061,464.296295 945.007141,465.234131 
	C941.957581,473.601257 938.927490,481.947357 935.874939,490.285187 
	C919.961853,533.751160 904.030945,577.210632 888.130493,620.681213 
	C878.845398,646.065857 857.117798,661.181946 829.890991,661.331543 
	C816.498352,661.405151 819.708618,659.508362 815.098755,671.768738 
	C812.696655,678.157654 810.394714,684.584167 808.046753,690.993469 
	C800.310181,712.112976 781.448425,725.316040 758.956909,725.319153 
	C677.804565,725.330383 596.652283,725.331665 514.999878,725.337036 
M469.499908,650.651733 
	C584.805481,650.650574 700.111023,650.648254 815.416565,650.658691 
	C817.243103,650.658875 819.677551,650.088501 820.794128,651.021729 
	C826.591064,655.866760 833.113586,653.984131 839.181824,652.965759 
	C861.405457,649.235596 874.911865,635.555786 882.404907,614.706787 
	C897.214661,573.499512 912.449219,532.445007 927.485535,491.319061 
	C928.798950,487.726807 929.946472,484.073853 931.471069,479.561066 
	C925.339172,482.880524 920.121399,485.472961 915.131165,488.447388 
	C895.167542,500.346649 873.770325,505.520416 850.388367,505.491425 
	C623.942688,505.210632 397.496552,505.313416 171.050552,505.354706 
	C164.529800,505.355896 158.107513,504.796753 151.679825,503.779266 
	C133.736420,500.938721 117.826462,493.075867 102.327896,484.121124 
	C100.007309,482.780365 97.758171,481.071564 94.265526,480.648163 
	C95.025528,483.109711 95.480270,484.857483 96.098679,486.545288 
	C112.134605,530.311768 128.207352,574.064758 144.228790,617.836548 
	C151.674118,638.177673 166.336105,649.812988 187.435867,653.363037 
	C192.131378,654.153076 198.378082,655.370605 201.581345,653.102234 
	C206.282303,649.773132 210.624985,650.752991 215.060486,650.746155 
	C299.540131,650.615234 384.020050,650.650452 469.499908,650.651733 
M713.500000,661.309387 
	C547.537231,661.309387 381.574493,661.309387 214.225876,661.309387 
	C220.201584,674.724854 222.355133,687.977417 229.951218,698.925415 
	C239.206985,712.265381 252.314102,717.938538 268.528015,717.911560 
	C361.494751,717.756714 454.461853,717.821350 547.428833,717.820557 
	C617.237366,717.819946 687.046082,717.744568 756.854248,717.906616 
	C772.853271,717.943726 785.939209,712.376221 795.125916,699.274475 
	C802.953064,688.111633 805.416321,674.612061 810.819397,661.309692 
	C778.030701,661.309692 746.265381,661.309692 713.500000,661.309387 
z"/>
<path fill="#000000" opacity="1.000000" stroke="none" 
	d="
M615.220764,440.254089 
	C601.246887,451.659393 586.921326,461.866333 570.630493,469.525757 
	C577.648865,469.200226 584.670959,468.940582 591.684753,468.535675 
	C607.135925,467.643524 622.574463,466.486267 638.034241,465.802246 
	C650.802490,465.237305 662.632263,461.798920 673.620544,455.422821 
	C680.360413,451.511993 685.889160,446.313263 689.681824,439.370850 
	C700.979309,418.691254 721.471313,407.923065 744.001465,410.753967 
	C765.231018,413.421448 784.722839,430.953247 788.971313,453.391571 
	C790.693787,462.488464 794.065552,465.606964 802.956665,466.268951 
	C815.694641,467.217377 828.319031,469.706177 840.987000,471.570801 
	C844.367981,472.068451 846.603760,471.293060 847.806274,467.588623 
	C850.634460,458.876740 853.446167,450.180328 855.314880,441.195068 
	C856.727600,434.402649 855.330627,428.648865 849.705383,424.231110 
	C847.216003,422.276031 844.777161,420.255524 842.262390,418.334015 
	C833.103394,411.335876 831.401672,406.162079 835.059937,394.799469 
	C787.158691,383.172577 738.970093,373.157837 690.429321,364.089691 
	C694.193542,355.114410 715.605042,337.408722 723.965210,336.108551 
	C724.041321,338.589966 721.667664,339.189148 720.621643,340.654510 
	C719.658447,342.003754 718.394287,343.133545 717.354919,344.433777 
	C712.077209,351.036407 713.362732,354.848969 721.582458,356.522003 
	C740.005127,360.271729 758.464905,363.839203 776.881409,367.618256 
	C804.902039,373.368134 832.899902,379.229492 860.902832,385.065186 
	C862.335754,385.363831 863.726318,385.865631 865.090881,386.259644 
	C865.168823,388.619324 863.262512,388.645233 862.071899,389.269226 
	C856.909485,391.974823 851.558533,394.344025 846.521118,397.258881 
	C839.804077,401.145599 839.525330,405.876862 845.311218,411.190796 
	C848.499756,414.119202 851.813171,416.932709 854.794922,420.060547 
	C860.191650,425.721802 862.524231,432.211365 860.324707,440.178528 
	C857.477417,450.492126 853.639343,460.387268 849.210266,470.100769 
	C847.761536,473.278015 845.762024,474.447388 842.252686,474.352631 
	C824.432739,473.871399 806.607178,473.443604 788.782349,473.386475 
	C783.824890,473.370636 782.704590,471.522095 782.588867,466.942078 
	C782.119690,448.365143 774.092834,433.757416 757.773621,424.660828 
	C731.517334,410.025116 698.937805,425.899750 692.249146,456.146484 
	C691.451599,459.752960 690.898499,463.391663 691.184265,467.047485 
	C691.550964,471.738800 689.396973,473.117371 685.008057,473.107178 
	C662.341980,473.054504 639.675659,473.216034 617.009277,473.243774 
	C582.843201,473.285583 548.677063,473.282532 514.510986,473.278442 
	C513.048157,473.278290 511.498108,473.618378 509.417145,472.043152 
	C570.610291,459.938202 618.902832,425.470490 664.937622,386.650818 
	C651.045105,406.915100 634.071289,424.212219 615.220764,440.254089 
z"/>
<path fill="#000000" opacity="1.000000" stroke="none" 
	d="
M774.422119,576.187134 
	C771.626038,579.943176 768.081848,582.055054 763.728699,583.772888 
	C767.803345,588.603638 771.742310,593.197021 775.595886,597.860901 
	C780.785339,604.141602 785.422668,610.886047 791.701660,616.230957 
	C798.109375,621.685364 805.348022,625.056274 813.783875,625.734009 
	C814.743774,625.811157 815.821838,625.698486 816.578857,627.133667 
	C815.877136,629.175049 813.729858,629.401489 811.976196,629.943787 
	C795.789673,634.948975 779.401794,628.674744 768.531738,613.225647 
	C763.741272,606.417236 759.211609,599.425720 754.508484,592.555054 
	C751.815002,588.620239 749.010742,584.761169 746.201294,580.790039 
	C748.022461,578.979736 750.388794,579.687927 752.370789,579.067627 
	C759.404358,576.866333 762.799072,571.349182 761.560974,563.565186 
	C760.559998,557.272156 755.079651,553.217834 748.163513,553.318542 
	C745.144958,553.362488 743.994690,554.563354 744.003906,557.493042 
	C744.053101,573.149231 744.081848,588.805847 743.991516,604.461670 
	C743.967407,608.640015 746.868286,610.047974 750.067932,611.875305 
	C741.017639,613.139038 732.148926,613.041016 722.577271,612.069336 
	C730.659851,609.547791 728.806152,603.334106 728.837036,597.964600 
	C728.907959,585.638916 728.747375,573.310913 728.916138,560.987061 
	C728.985229,555.938293 729.016052,551.216492 722.902771,549.678833 
	C723.608948,548.195862 724.666626,548.072571 725.636169,548.080505 
	C737.281982,548.176086 748.980591,547.121216 760.557678,548.838379 
	C775.499451,551.054688 781.467712,562.765076 774.422119,576.187134 
z"/>
<path fill="#000000" opacity="1.000000" stroke="none" 
	d="
M336.374329,548.580566 
	C344.505676,548.629456 352.175323,548.480530 359.830994,548.741882 
	C372.461823,549.173035 379.547485,557.020752 378.286530,569.011230 
	C377.446045,577.003052 371.799072,580.924622 364.620148,584.001465 
	C373.460907,592.138794 379.645325,602.064697 387.362610,610.724915 
	C395.434143,619.782715 405.128662,625.673584 419.042175,625.999451 
	C414.923157,630.277527 410.770935,630.906189 406.720825,631.287415 
	C391.824432,632.689514 379.992828,626.804932 371.115479,615.136169 
	C362.767059,604.162598 356.158539,591.957336 347.453857,581.312317 
	C348.482391,579.030029 350.438416,579.864258 351.926819,579.571045 
	C360.994324,577.785034 365.587799,569.019531 361.880310,560.457153 
	C359.976685,556.060852 349.819611,553.128601 346.151520,555.920105 
	C344.914246,556.861694 344.998993,558.249634 345.005737,559.569763 
	C345.082397,574.562378 345.239166,589.554932 345.226685,604.547363 
	C345.223267,608.663147 348.061707,610.109863 351.214844,611.736084 
	C342.140930,613.560364 333.301697,612.420776 324.173798,611.867859 
	C329.937286,609.746704 330.184052,605.329834 330.119537,600.426392 
	C329.942017,586.934143 329.994934,573.438232 330.050446,559.944153 
	C330.069061,555.418518 330.090302,551.039551 323.344696,549.789917 
	C328.187286,547.010498 332.111603,548.606628 336.374329,548.580566 
z"/>
<path fill="#000000" opacity="1.000000" stroke="none" 
	d="
M219.992584,581.917969 
	C228.175629,580.444214 236.175156,580.986877 244.362839,581.322510 
	C235.640671,589.695007 238.820587,599.484253 240.798218,608.167542 
	C244.153671,622.900513 255.354568,627.320007 269.320984,625.677490 
	C269.669373,628.242859 268.020782,628.323181 266.873688,628.718811 
	C251.916748,633.878052 237.048218,628.563232 228.957550,614.904358 
	C227.202209,611.940918 225.603821,611.095093 222.210312,612.105591 
	C212.361847,615.038147 202.466492,614.650818 192.782791,611.201538 
	C179.432510,606.446228 170.960312,594.067566 171.302582,580.080017 
	C171.667755,565.156921 180.078705,554.058777 194.066238,549.494873 
	C206.672684,545.381531 219.000702,546.790649 231.330215,550.578308 
	C234.113556,551.433289 235.412994,553.067261 235.298798,556.047180 
	C235.154678,559.808350 235.264023,563.579346 235.264023,567.299133 
	C232.649445,567.599182 232.657959,565.860596 232.168701,564.809875 
	C228.116379,556.106934 220.961288,552.559448 211.744553,552.182983 
	C202.216766,551.793762 195.249527,556.004395 191.064041,564.293945 
	C185.444855,575.423035 185.545731,586.809753 191.510422,597.815674 
	C196.657059,607.312195 207.880875,611.463989 217.153046,607.632324 
	C222.008652,605.625671 225.190353,602.367004 224.765137,596.620789 
	C224.642624,594.965149 224.558090,593.262756 224.799408,591.632629 
	C225.452087,587.223633 224.098953,583.991516 219.992584,581.917969 
z"/>
<path fill="#000000" opacity="1.000000" stroke="none" 
	d="
M632.736572,536.478882 
	C637.022522,534.472778 640.994629,532.765381 645.449280,534.150330 
	C645.689453,534.983337 645.598694,535.695923 644.839172,535.897339 
	C637.901672,537.738220 633.616333,542.778259 629.769470,548.336609 
	C623.701843,557.103821 617.777527,565.973389 611.547607,574.623169 
	C609.630371,577.285095 609.886902,579.189575 611.620422,581.699585 
	C615.121948,586.769409 618.307617,592.056213 621.692017,597.208496 
	C625.572083,603.115295 628.443909,610.078796 637.177185,611.044250 
	C636.955200,611.472717 636.733215,611.901123 636.511169,612.329590 
	C626.595398,612.329590 616.679565,612.329590 605.204834,612.329590 
	C611.474304,608.673950 609.669495,605.382935 607.125427,601.790527 
	C604.072449,597.479492 601.339111,592.942139 598.570496,588.662292 
	C595.843567,589.054382 595.211487,590.971680 594.193665,592.390564 
	C589.435242,599.023926 584.897522,605.821533 579.978455,612.331848 
	C575.634094,618.081665 570.720459,623.290771 563.463013,625.512573 
	C560.104797,626.540710 556.829163,626.688721 553.352722,625.826843 
	C553.641968,624.971069 553.689087,624.452271 553.848083,624.415283 
	C563.636597,622.139893 568.877380,614.524292 574.266968,607.081360 
	C579.641968,599.658508 584.937500,592.176025 590.433105,584.843567 
	C592.611450,581.937134 592.984802,579.505859 590.764343,576.341248 
	C586.460999,570.208252 582.411316,563.886292 578.495789,557.496033 
	C575.910400,553.276550 572.099731,550.978149 567.525269,549.045105 
	C577.665100,547.587585 587.707458,547.971252 598.382751,548.176392 
	C597.327637,551.064453 593.618774,551.446411 594.501526,554.183777 
	C595.151245,556.198608 596.403015,558.049255 597.556519,559.864929 
	C599.520691,562.956543 601.603760,565.973328 603.679504,568.992249 
	C603.930420,569.357117 604.445007,569.540771 605.379578,570.178162 
	C609.061768,564.785461 612.697266,559.465576 616.328186,554.142639 
	C620.835754,547.534424 625.068298,540.674072 632.736572,536.478882 
z"/>
<path fill="#000000" opacity="1.000000" stroke="none" 
	d="
M723.397217,531.553833 
	C710.636475,536.414490 706.370789,542.481995 706.292664,556.151978 
	C706.232666,566.640381 706.307373,577.129639 706.245667,587.618042 
	C706.156799,602.715820 698.988159,611.000000 684.070923,613.601562 
	C678.364502,614.596802 672.753418,614.155518 667.256104,612.717834 
	C654.552612,609.395447 648.665344,601.581665 648.216248,587.041931 
	C647.933777,577.898499 648.170227,568.734253 648.351013,559.582886 
	C648.469910,553.562866 647.928345,552.236511 643.164185,548.997375 
	C651.540833,547.568115 659.943604,548.015991 668.913452,549.036499 
	C662.360718,550.850464 663.249084,555.650940 663.271118,560.122314 
	C663.319580,569.944824 663.328613,579.767944 663.269897,589.590332 
	C663.247437,593.346252 664.051392,596.877502 665.820435,600.143738 
	C669.109192,606.215698 676.703430,609.829041 683.134949,608.515991 
	C689.287415,607.259888 695.498352,599.791626 695.643921,592.698608 
	C695.886536,580.882935 695.766663,569.059265 695.751038,557.239014 
	C695.744141,551.985840 696.832031,546.983948 699.128784,542.285767 
	C703.098999,534.164612 711.992920,529.080750 720.735352,529.819824 
	C721.850281,529.914001 723.155212,529.691406 723.397217,531.553833 
z"/>
<path fill="#000000" opacity="1.000000" stroke="none" 
	d="
M516.929016,601.984009 
	C521.960571,607.809998 527.995056,610.532349 534.967346,607.737488 
	C542.105469,604.876038 545.522400,598.695496 545.658447,591.090332 
	C545.869995,579.264465 545.575439,567.429443 545.798157,555.604004 
	C546.058533,541.773254 553.683167,532.239929 565.878174,530.093445 
	C568.433716,529.643616 571.064331,529.323792 573.464722,530.492188 
	C573.686157,532.375488 572.394836,532.278687 571.550659,532.471863 
	C561.105652,534.861755 556.716980,543.308044 556.370117,553.350708 
	C555.990784,564.334900 556.229431,575.340088 556.183411,586.336060 
	C556.108643,604.184753 546.632446,613.767944 528.760925,614.118713 
	C524.904358,614.194397 521.080750,613.802795 517.377380,612.840698 
	C504.572968,609.514587 498.161987,601.061035 498.001648,587.302856 
	C497.892914,577.973816 497.888306,568.641418 498.014191,559.312927 
	C498.072510,554.992920 498.021210,550.943604 492.393372,549.540710 
	C496.694305,547.646851 513.619995,547.487793 518.495728,549.152344 
	C517.197571,551.145203 513.791016,550.752930 513.488403,553.428650 
	C513.227539,555.735779 513.251404,558.081299 513.246277,560.410034 
	C513.224854,570.073486 513.277710,579.737183 513.225281,589.400391 
	C513.201111,593.858826 514.250183,597.964172 516.929016,601.984009 
z"/>
<path fill="#000000" opacity="1.000000" stroke="none" 
	d="
M470.889587,597.979614 
	C471.159851,613.254150 468.997406,611.553040 483.991486,615.976379 
	C497.556946,619.978333 511.074646,624.119995 525.500061,623.843933 
	C530.021973,623.757446 533.986328,621.536377 538.587097,620.944763 
	C536.201416,628.066589 526.970825,633.795837 518.255310,634.342957 
	C509.004547,634.923767 500.396851,632.610596 492.131958,628.870361 
	C482.878876,624.682861 473.753113,620.212280 464.599670,615.807312 
	C459.941650,613.565613 454.738373,613.422119 449.136566,611.750610 
	C456.355835,610.193970 455.747833,605.123474 455.722290,600.206848 
	C455.652191,586.708679 455.622528,573.209229 455.734375,559.711609 
	C455.772583,555.098450 455.722198,550.803040 449.587280,549.286987 
	C458.726776,547.551147 467.522095,548.174561 477.009674,548.916687 
	C469.488281,551.509644 470.967712,557.334412 470.940826,562.487427 
	C470.879913,574.152649 470.901672,585.818237 470.889587,597.979614 
z"/>
<path fill="#000000" opacity="1.000000" stroke="none" 
	d="
M277.658875,598.838989 
	C277.653229,585.375977 277.526154,572.390198 277.716797,559.408997 
	C277.774597,555.474182 276.506989,553.988831 272.549713,554.268799 
	C268.573944,554.550171 264.534271,554.038086 260.574524,554.416626 
	C249.667480,555.459106 247.753510,560.610413 249.714355,567.603394 
	C249.869095,568.155273 249.734726,568.788269 249.734726,569.617615 
	C243.700577,565.574951 242.958893,558.351624 247.780945,553.237854 
	C251.749710,549.028992 256.963287,548.057190 262.396118,548.013184 
	C273.714844,547.921387 285.034760,547.966492 296.354187,547.969666 
	C301.997284,547.971252 307.640778,548.014404 313.748260,547.048706 
	C314.870911,552.618286 314.152832,557.955200 314.270844,563.393616 
	C313.394073,563.249634 312.892487,563.293152 312.820038,563.137329 
	C308.865021,554.625427 304.729401,552.637634 295.026886,554.341919 
	C292.863312,554.721985 292.310547,555.868164 292.312042,557.749023 
	C292.324524,573.396240 292.329590,589.043518 292.327881,604.690735 
	C292.327423,608.826843 295.388794,610.176025 298.619080,611.716797 
	C289.647522,613.141113 280.783295,613.033813 270.610901,612.699768 
	C273.345276,609.985168 276.252472,609.439636 277.128754,606.742920 
	C277.928833,604.280701 277.515656,601.792847 277.658875,598.838989 
z"/>
<path fill="#000000" opacity="1.000000" stroke="none" 
	d="
M843.817139,544.478699 
	C847.190308,543.423523 850.190735,541.893677 854.274597,543.807312 
	C837.261597,552.163696 831.977783,567.315491 828.029724,583.124573 
	C826.206970,590.423401 827.400208,598.030334 827.448059,605.495911 
	C827.471313,609.132141 830.717285,610.099304 833.425293,611.893066 
	C824.446106,613.231995 815.560425,613.004639 806.407959,612.066833 
	C812.477539,609.785583 812.539612,605.190857 812.773254,600.081421 
	C813.374023,586.941833 811.048157,574.629028 804.479126,563.141357 
	C799.578491,554.571472 793.741821,547.147705 783.154175,544.695007 
	C788.100586,541.409790 799.172974,543.826050 807.476562,549.410278 
	C814.912292,554.410950 819.393921,561.650757 822.986145,570.678223 
	C828.319519,559.949524 832.788391,549.754578 843.817139,544.478699 
z"/>
<path fill="#000000" opacity="1.000000" stroke="none" 
	d="
M567.549072,699.444580 
	C565.787292,696.804382 564.215027,694.475769 561.886292,691.026733 
	C561.677673,695.287292 561.483826,698.290161 561.401245,701.296082 
	C561.353210,703.044678 561.386047,704.805603 559.028076,704.903809 
	C556.726807,704.999756 555.742798,703.678528 555.742676,701.472351 
	C555.742432,695.976379 555.700256,690.480164 555.739868,684.984497 
	C555.751587,683.366333 555.501099,681.462280 557.705688,680.922180 
	C559.870056,680.391907 561.588684,681.081360 562.862610,682.993835 
	C565.163330,686.447754 567.541809,689.849731 570.774536,694.567322 
	C570.774536,690.163574 570.747437,687.113647 570.784546,684.064392 
	C570.807434,682.178833 571.492554,680.824463 573.692871,680.845581 
	C576.013611,680.867859 576.337769,682.437500 576.342224,684.233704 
	C576.355530,689.563232 576.392883,694.893311 576.323608,700.221985 
	C576.301208,701.947388 576.871216,704.102661 574.349976,704.745422 
	C572.024231,705.338379 570.566162,704.041870 569.391602,702.255798 
	C568.842773,701.421204 568.289795,700.589355 567.549072,699.444580 
z"/>
<path fill="#000000" opacity="1.000000" stroke="none" 
	d="
M423.022949,684.331299 
	C423.230957,681.970337 424.084106,680.749146 426.164978,680.764099 
	C428.651520,680.781921 431.170319,680.555298 433.618408,680.872498 
	C440.662292,681.785095 443.316650,687.841858 439.003723,693.485291 
	C437.395935,695.589050 437.174530,697.143677 438.607117,699.212830 
	C439.535522,700.553833 440.512299,701.923889 440.640015,704.025818 
	C433.398682,707.440369 433.734314,698.963135 430.052490,697.036255 
	C428.661255,698.388733 429.217896,699.973938 429.065948,701.372864 
	C428.866730,703.206726 428.337769,704.664124 426.209351,704.745605 
	C423.796021,704.837891 423.036499,703.255920 423.017303,701.214600 
	C422.965851,695.741943 422.994507,690.268494 423.022949,684.331299 
M433.065338,686.327637 
	C430.809479,685.926453 428.954407,686.263367 429.422058,689.140320 
	C429.727325,691.018311 431.411011,691.241028 432.871368,690.714111 
	C435.120239,689.902649 435.365723,688.397095 433.065338,686.327637 
z"/>
<path fill="#000000" opacity="1.000000" stroke="none" 
	d="
M501.961304,691.197388 
	C495.958252,695.665894 501.253357,699.657715 502.386292,704.007385 
	C494.892395,707.006958 495.022339,698.984009 491.506195,696.773071 
	C489.741180,698.248779 490.459381,700.041992 490.372833,701.600525 
	C490.262787,703.582886 489.557922,704.832520 487.436798,704.774048 
	C485.618866,704.723938 484.746674,703.638062 484.743256,701.862488 
	C484.731750,695.867981 484.728577,689.873474 484.747925,683.879089 
	C484.751221,682.861938 484.913422,681.522400 485.919281,681.316162 
	C490.350677,680.407471 494.878571,679.939880 499.075562,682.118896 
	C502.664337,683.982178 502.732880,687.348816 501.961304,691.197388 
M490.793152,687.108765 
	C489.873932,689.638184 490.839355,690.931519 493.450867,690.911743 
	C495.043976,690.899658 496.734344,690.201660 496.371155,688.404541 
	C495.774139,685.450623 493.445831,685.952332 490.793152,687.108765 
z"/>
<path fill="#000000" opacity="1.000000" stroke="none" 
	d="
M384.023682,698.015137 
	C385.787354,693.127136 387.428162,688.597900 389.050171,684.061890 
	C389.777435,682.028076 390.856049,680.662842 393.343475,680.686890 
	C395.754059,680.710144 396.896179,681.822327 397.644775,683.984009 
	C399.546600,689.475891 401.634064,694.903137 403.597778,700.374084 
	C404.147461,701.905518 405.026764,703.675354 402.744568,704.587708 
	C400.986023,705.290833 399.663513,704.602661 398.429169,703.123962 
	C395.776459,699.946167 391.120819,699.114990 389.171082,701.606323 
	C387.674988,703.518066 386.457306,705.995728 383.773224,704.496643 
	C380.670288,702.763489 383.816620,700.445251 384.023682,698.015137 
M394.582367,695.376831 
	C395.740234,693.345642 394.737000,691.886719 393.221893,690.535950 
	C393.337158,692.246582 389.045624,694.576172 394.582367,695.376831 
z"/>
<path fill="#000000" opacity="1.000000" stroke="none" 
	d="
M646.057556,701.793457 
	C642.110291,699.692688 638.671326,699.031372 636.119263,703.447021 
	C635.289490,704.882690 633.694519,705.217163 632.153687,704.553833 
	C630.148438,703.690552 630.938354,702.087952 631.420410,700.721130 
	C633.463013,694.930054 635.432800,689.107483 637.698303,683.403259 
	C639.018372,680.079407 643.717957,679.436462 645.101196,682.445496 
	C648.267334,689.332886 650.720703,696.519287 652.780029,703.880127 
	C649.552795,705.559631 647.570862,704.922119 646.057556,701.793457 
M640.448242,695.417297 
	C646.985535,695.100952 641.755737,692.344543 641.856079,690.690125 
	C640.432312,691.904907 639.823242,693.330994 640.448242,695.417297 
z"/>
<path fill="#000000" opacity="1.000000" stroke="none" 
	d="
M351.447266,686.303284 
	C346.644043,688.818542 345.345978,692.234863 347.377380,696.062683 
	C349.458923,699.984924 352.288239,700.572266 356.912689,697.792480 
	C359.099945,696.477783 361.147980,696.310181 363.414062,697.313049 
	C361.694885,702.873230 356.660919,705.913208 351.092865,704.933960 
	C344.461639,703.767822 340.314056,698.492920 340.730499,691.755249 
	C341.118896,685.470642 345.733887,680.966919 352.074127,680.684998 
	C358.589233,680.395264 362.357819,682.997803 363.285309,688.454346 
	C358.713318,691.648315 356.032471,684.940735 351.447266,686.303284 
z"/>
<path fill="#000000" opacity="1.000000" stroke="none" 
	d="
M521.921875,701.561646 
	C521.868103,695.958374 521.973999,690.808167 521.811218,685.666443 
	C521.698486,682.104431 522.982910,680.367126 526.718323,680.669556 
	C528.863525,680.843201 531.032654,680.707764 533.190369,680.745239 
	C534.818115,680.773438 536.189697,681.177673 536.208862,683.198730 
	C536.228088,685.230713 534.873535,685.652954 533.230042,685.672424 
	C532.569092,685.680237 531.907532,685.554993 531.245178,685.540649 
	C529.795166,685.509277 528.510803,685.855957 528.370117,687.570557 
	C528.225769,689.331482 529.505554,689.727539 530.921753,689.955261 
	C532.787781,690.255310 535.316650,689.832397 535.157043,692.869019 
	C535.015442,695.562378 532.715820,695.064575 530.996155,695.249451 
	C529.555664,695.404297 528.263794,695.750549 528.300720,697.493469 
	C528.344666,699.570129 529.966003,699.612244 531.501892,699.763184 
	C533.510193,699.960449 536.437744,699.243042 536.068420,702.662231 
	C535.730164,705.794373 532.813660,705.157227 530.894104,704.945007 
	C527.777466,704.600586 523.627563,706.896362 521.921875,701.561646 
z"/>
<path fill="#000000" opacity="1.000000" stroke="none" 
	d="
M607.082092,701.475891 
	C606.783386,704.233643 605.410156,705.085938 603.230469,704.654480 
	C601.379028,704.288025 601.046021,702.752502 601.006409,701.209045 
	C600.921143,697.882446 600.891541,694.552551 600.928711,691.225098 
	C600.958130,688.590820 600.888916,686.161621 597.441345,685.684326 
	C595.988403,685.483093 594.992126,684.585510 595.204041,682.931885 
	C595.415955,681.278442 596.626160,680.782043 598.071533,680.774902 
	C602.230835,680.754395 606.391113,680.746948 610.549561,680.817688 
	C612.078064,680.843689 613.032349,681.664307 613.025208,683.319824 
	C613.018738,684.820435 612.053894,685.431824 610.766479,685.400208 
	C607.382690,685.317078 607.118103,687.503784 607.141296,690.052185 
	C607.174683,693.713013 607.128540,697.374634 607.082092,701.475891 
z"/>
<path fill="#000000" opacity="1.000000" stroke="none" 
	d="
M673.797791,704.847778 
	C672.098083,704.347290 671.622253,703.389221 671.593384,702.105957 
	C671.463135,696.305847 671.265137,690.506409 671.219666,684.705750 
	C671.205139,682.857483 671.490540,680.944641 674.057007,680.842285 
	C676.889160,680.729248 677.254089,682.608765 677.262512,684.780212 
	C677.273376,687.599915 677.381653,690.424316 677.257263,693.238220 
	C677.093201,696.948059 676.970520,700.390747 682.320374,700.066528 
	C683.859863,699.973267 684.638733,701.215271 684.531311,702.775879 
	C684.432495,704.211304 683.366577,704.796143 682.152039,704.850098 
	C679.506470,704.967590 676.853455,704.915527 673.797791,704.847778 
z"/>
</svg>